<?xml version="1.0" encoding="UTF-8"?>
<svg width="472px" height="276px" viewBox="0 0 472 276" version="1.1" xmlns="http://www.w3.org/2000/svg" xmlns:xlink="http://www.w3.org/1999/xlink">
    <!-- Generator: Sketch 53.2 (72643) - https://sketchapp.com -->
    <title>nwo-stacked-cmyk</title>
    <desc>Created with Sketch.</desc>
    <defs>
        <polygon id="path-1" points="0.06 0.96 66.939 0.96 66.939 80.982 0.06 80.982"></polygon>
        <polygon id="path-3" points="0.06 0.965 244.984808 0.965 244.984808 176.605 0.06 176.605"></polygon>
        <polygon id="path-5" points="0.604500639 0.091 350.284944 0.091 350.284944 81.94 0.604500639 81.94"></polygon>
    </defs>
    <g id="nwo-stacked-cmyk" stroke="none" stroke-width="1" fill="none" fill-rule="evenodd">
        <g id="Group-3">
            <mask id="mask-2" fill="white">
                <use xlink:href="#path-1"></use>
            </mask>
            <g id="Clip-2"></g>
            <path d="M66.939,78.291 L66.939,3.658 C66.939,2.169 65.73,0.96 64.247,0.96 L57.302,0.96 C55.812,0.96 54.604,2.169 54.604,3.658 L54.604,60.726 L13.865,2.115 C13.364,1.394 12.536,0.96 11.654,0.96 L2.691,0.96 C1.209,0.96 0,2.169 0,3.658 L0,78.291 C0,79.774 1.209,80.982 2.691,80.982 L9.644,80.982 C11.133,80.982 12.342,79.774 12.342,78.291 L12.342,21.223 L53.081,79.834 C53.582,80.555 54.41,80.982 55.292,80.982 L64.247,80.982 C65.73,80.982 66.939,79.774 66.939,78.291" id="Fill-1" fill="#272F32" mask="url(#mask-2)"></path>
        </g>
        <path d="M134.72,78.291 L134.72,71.96 C134.72,70.477 133.511,69.268 132.028,69.268 L94.354,69.268 L94.354,45.566 L127.921,45.566 C129.41,45.566 130.619,44.357 130.619,42.868 L130.619,36.55 C130.619,35.061 129.41,33.852 127.921,33.852 L94.354,33.852 L94.354,12.681 L130.345,12.681 C131.828,12.681 133.037,11.472 133.037,9.983 L133.037,3.658 C133.037,2.169 131.828,0.96 130.345,0.96 L84.704,0.96 C83.222,0.96 82.013,2.169 82.013,3.658 L82.013,78.291 C82.013,79.774 83.222,80.982 84.704,80.982 L132.028,80.982 C133.511,80.982 134.72,79.774 134.72,78.291" id="Fill-4" fill="#272F32"></path>
        <g id="Group-8">
            <mask id="mask-4" fill="white">
                <use xlink:href="#path-3"></use>
            </mask>
            <g id="Clip-6"></g>
            <path d="M244.88,4.411 C245.113,3.596 244.953,2.715 244.445,2.04 C243.931,1.359 243.137,0.965 242.288,0.965 L235.122,0.965 C233.913,0.965 232.851,1.766 232.524,2.928 L216.442,60.243 L200.086,2.922 C199.759,1.76 198.697,0.965 197.496,0.965 L188.64,0.965 C187.437,0.965 186.375,1.76 186.048,2.922 L169.686,60.223 L153.597,2.928 C153.27,1.766 152.208,0.965 150.999,0.965 L143.833,0.965 C142.992,0.965 142.19,1.359 141.676,2.04 C141.168,2.715 141.008,3.596 141.242,4.411 L162.967,79.044 C163.308,80.192 164.356,80.987 165.559,80.987 L174.094,80.987 C175.303,80.987 176.351,80.186 176.692,79.03 L193.067,21.381 L209.443,79.03 C209.784,80.186 210.832,80.987 212.041,80.987 L220.577,80.987 C221.778,80.987 222.827,80.192 223.167,79.044 L244.88,4.411" id="Fill-5" fill="#272F32" mask="url(#mask-4)"></path>
            <path d="M103.746,100.029 C103.98,99.214 103.827,98.333 103.319,97.658 C102.798,96.977 102.003,96.583 101.155,96.583 L93.989,96.583 C92.78,96.583 91.719,97.384 91.391,98.547 L75.309,155.862 L58.954,98.54 C58.626,97.378 57.564,96.583 56.362,96.583 L47.5,96.583 C46.298,96.583 45.243,97.378 44.909,98.54 L28.553,155.842 L12.464,98.547 C12.137,97.384 11.075,96.583 9.866,96.583 L2.7,96.583 C1.852,96.583 1.057,96.977 0.537,97.658 C0.036,98.333 -0.125,99.214 0.109,100.029 L21.828,174.662 C22.168,175.81 23.224,176.605 24.419,176.605 L32.961,176.605 C34.169,176.605 35.225,175.804 35.559,174.648 L51.934,116.999 L68.31,174.648 C68.644,175.804 69.699,176.605 70.908,176.605 L79.443,176.605 C80.639,176.605 81.694,175.81 82.035,174.662 L103.746,100.029" id="Fill-7" fill="#272F32" mask="url(#mask-4)"></path>
        </g>
        <path d="M259.149,172.511 L239.434,139.98 C240.382,139.753 241.357,139.479 242.366,139.165 C244.91,138.37 247.274,137.142 249.371,135.512 C251.535,133.829 253.345,131.638 254.734,129.001 C256.17,126.316 256.892,122.91 256.892,118.883 C256.892,115.256 256.284,112.104 255.068,109.519 C253.866,106.961 252.31,104.798 250.433,103.081 C248.57,101.378 246.439,100.069 244.089,99.181 C241.898,98.353 239.721,97.738 237.61,97.371 C235.554,96.997 233.59,96.77 231.753,96.69 C230.024,96.623 228.661,96.583 227.64,96.583 L208.044,96.583 C206.555,96.583 205.347,97.792 205.347,99.274 L205.347,173.907 C205.347,175.396 206.555,176.605 208.044,176.605 L214.99,176.605 C216.473,176.605 217.682,175.396 217.682,173.907 L217.682,141.182 L226.417,141.182 L246.62,175.283 C247.1,176.097 247.989,176.605 248.937,176.605 L256.845,176.605 C257.82,176.605 258.715,176.077 259.196,175.229 C259.67,174.388 259.656,173.346 259.149,172.511 M229.75,129.475 L217.682,129.475 L217.682,108.297 L229.75,108.297 C233.049,108.297 235.714,108.698 237.65,109.472 C239.567,110.247 241.043,111.162 242.025,112.204 C243,113.219 243.635,114.274 243.975,115.416 C244.362,116.752 244.556,117.914 244.556,118.883 C244.556,119.858 244.362,121.026 243.975,122.335 C243.635,123.491 243,124.546 242.025,125.568 C241.03,126.623 239.56,127.538 237.65,128.293 C235.714,129.074 233.056,129.475 229.75,129.475" id="Fill-9" fill="#272F32"></path>
        <path d="M341.062,136.594 C341.062,135.633 340.956,133.983 340.735,131.652 C340.516,129.288 339.961,126.616 339.106,123.718 C338.251,120.799 336.889,117.707 335.065,114.528 C333.188,111.282 330.611,108.29 327.385,105.632 C324.18,102.988 320.125,100.79 315.33,99.107 C310.569,97.431 304.731,96.583 297.999,96.583 L274.918,96.583 C273.429,96.583 272.22,97.792 272.22,99.281 L272.22,173.914 C272.22,175.396 273.429,176.605 274.918,176.605 L297.999,176.605 C304.731,176.605 310.569,175.757 315.337,174.081 C320.119,172.398 324.173,170.2 327.385,167.556 C330.617,164.891 333.195,161.892 335.065,158.653 C336.889,155.488 338.251,152.395 339.106,149.484 C339.981,146.525 340.509,143.921 340.735,141.536 C340.956,139.205 341.062,137.562 341.062,136.594 M326.223,149.317 C324.587,152.816 322.323,155.735 319.504,157.999 C316.633,160.289 313.193,162.026 309.273,163.155 C305.246,164.303 300.851,164.891 296.21,164.891 L284.569,164.891 L284.569,108.297 L296.21,108.297 C300.838,108.297 305.232,108.885 309.273,110.033 C313.193,111.162 316.633,112.899 319.504,115.196 C322.329,117.453 324.594,120.379 326.223,123.878 C327.872,127.398 328.714,131.678 328.714,136.594 C328.714,141.51 327.872,145.79 326.223,149.317" id="Fill-10" fill="#272F32"></path>
        <path d="M182.043,164.827 C181.976,164.033 181.562,163.318 180.914,162.864 L175.318,158.904 C174.256,158.156 172.827,158.269 171.892,159.164 C169.574,161.388 166.883,163.178 163.877,164.474 C156.791,167.539 146.881,167.539 139.775,164.474 C136.235,162.944 133.189,160.814 130.719,158.156 C128.227,155.471 126.29,152.272 124.948,148.619 C123.593,144.926 122.898,140.878 122.898,136.584 C122.898,132.711 123.486,128.964 124.668,125.451 C125.042,124.329 124.634,123.087 123.666,122.399 L117.835,118.278 C117.154,117.797 116.206,117.851 115.418,118.098 C114.63,118.332 113.902,119.12 113.595,119.887 C111.578,124.937 110.562,130.56 110.562,136.584 C110.562,142.608 111.578,148.252 113.588,153.334 C115.618,158.463 118.47,162.951 122.07,166.664 C125.683,170.398 130.084,173.329 135.153,175.4 C140.202,177.45 145.812,178.492 151.829,178.492 C157.847,178.492 163.457,177.45 168.499,175.4 C173.408,173.403 177.709,170.558 181.275,166.958 C181.836,166.397 182.11,165.616 182.043,164.827" id="Fill-11" fill="#79C6BF"></path>
        <path d="M193.101,136.587 C193.101,130.563 192.079,124.947 190.063,119.891 C188.039,114.782 185.181,110.327 181.588,106.621 C177.975,102.887 173.58,99.935 168.518,97.832 C158.387,93.651 145.27,93.651 135.139,97.832 C130.29,99.849 126.022,102.68 122.456,106.26 C121.895,106.821 121.608,107.602 121.674,108.39 C121.748,109.185 122.162,109.907 122.81,110.361 L128.346,114.274 C129.401,115.022 130.837,114.915 131.766,114.014 C134.09,111.783 136.781,110 139.767,108.704 C146.879,105.646 156.81,105.646 163.876,108.704 C167.416,110.227 170.461,112.358 172.939,115.022 C175.41,117.674 177.353,120.88 178.716,124.553 C180.072,128.253 180.76,132.306 180.76,136.587 C180.76,140.481 180.165,144.221 178.99,147.72 C178.616,148.849 179.023,150.092 179.992,150.779 L185.849,154.913 C186.223,155.18 186.684,155.287 187.144,155.287 C187.518,155.287 187.899,155.214 188.246,155.114 C189.041,154.88 189.762,154.105 190.069,153.337 C192.079,148.235 193.101,142.605 193.101,136.587" id="Fill-12" fill="#272F32"></path>
        <path d="M259.149,270.019 L239.434,237.488 C240.382,237.261 241.357,236.987 242.366,236.673 C244.91,235.878 247.274,234.65 249.371,233.02 C251.535,231.344 253.338,229.153 254.734,226.508 C256.17,223.824 256.898,220.417 256.898,216.39 C256.898,212.764 256.284,209.612 255.061,207.02 C253.859,204.456 252.297,202.292 250.433,200.589 C248.563,198.886 246.426,197.57 244.089,196.695 C241.905,195.861 239.721,195.246 237.61,194.879 C235.554,194.505 233.59,194.278 231.753,194.198 C230.024,194.131 228.661,194.091 227.646,194.091 L208.044,194.091 C206.555,194.091 205.347,195.3 205.347,196.782 L205.347,271.414 C205.347,272.905 206.555,274.113 208.044,274.113 L214.99,274.113 C216.473,274.113 217.682,272.905 217.682,271.414 L217.682,238.69 L226.417,238.69 L246.62,272.79 C247.1,273.612 247.989,274.113 248.937,274.113 L256.845,274.113 C257.82,274.113 258.715,273.585 259.196,272.738 C259.67,271.896 259.656,270.854 259.149,270.019 M229.75,226.982 L217.682,226.982 L217.682,205.805 L229.75,205.805 C233.049,205.805 235.707,206.205 237.65,206.98 C239.574,207.755 241.043,208.67 242.025,209.712 C243,210.734 243.635,211.782 243.975,212.924 C244.362,214.26 244.563,215.422 244.563,216.39 C244.563,217.372 244.362,218.534 243.975,219.843 C243.635,220.998 243,222.06 242.025,223.082 C241.03,224.131 239.56,225.046 237.65,225.801 C235.707,226.582 233.049,226.982 229.75,226.982" id="Fill-13" fill="#272F32"></path>
        <path d="M341.062,234.101 C341.062,233.139 340.956,231.496 340.742,229.158 C340.521,226.794 339.968,224.123 339.112,221.218 C338.251,218.279 336.889,215.194 335.072,212.034 C333.195,208.789 330.611,205.797 327.385,203.145 C324.186,200.501 320.139,198.303 315.337,196.614 C310.575,194.937 304.738,194.089 297.999,194.089 L274.918,194.089 C273.436,194.089 272.22,195.298 272.22,196.787 L272.22,271.42 C272.22,272.903 273.436,274.112 274.918,274.112 L297.999,274.112 C304.738,274.112 310.575,273.263 315.344,271.587 C320.132,269.905 324.18,267.707 327.385,265.069 C330.624,262.405 333.209,259.406 335.079,256.159 C336.889,253.007 338.244,249.929 339.112,246.991 C339.987,244.032 340.516,241.427 340.742,239.042 C340.956,236.705 341.062,235.069 341.062,234.101 M284.576,205.803 L296.21,205.803 C300.845,205.803 305.239,206.391 309.273,207.547 C313.2,208.669 316.646,210.405 319.511,212.702 C322.336,214.96 324.6,217.885 326.236,221.385 C327.886,224.904 328.721,229.185 328.721,234.101 C328.721,239.016 327.886,243.297 326.236,246.824 C324.594,250.323 322.329,253.241 319.511,255.505 C316.646,257.803 313.2,259.532 309.273,260.661 C305.259,261.81 300.865,262.398 296.21,262.398 L284.576,262.398 L284.576,205.803" id="Fill-14" fill="#272F32"></path>
        <g id="Group-19" transform="translate(121.000000, 194.000000)">
            <mask id="mask-6" fill="white">
                <use xlink:href="#path-5"></use>
            </mask>
            <g id="Clip-16"></g>
            <path d="M285.177,77.417 L285.177,71.086 C285.177,69.604 283.968,68.395 282.478,68.395 L244.805,68.395 L244.805,44.693 L278.378,44.693 C279.867,44.693 281.069,43.484 281.069,41.994 L281.069,35.677 C281.069,34.187 279.867,32.978 278.378,32.978 L244.805,32.978 L244.805,11.807 L280.796,11.807 C282.285,11.807 283.494,10.598 283.494,9.109 L283.494,2.785 C283.494,1.295 282.285,0.093 280.796,0.093 L235.161,0.093 C233.672,0.093 232.463,1.295 232.463,2.785 L232.463,77.417 C232.463,78.907 233.672,80.109 235.161,80.109 L282.478,80.109 C283.968,80.109 285.177,78.907 285.177,77.417" id="Fill-15" fill="#272F32" mask="url(#mask-6)"></path>
            <path d="M349.895,76.019 L330.181,43.488 C331.136,43.254 332.11,42.987 333.105,42.673 C335.643,41.885 338.001,40.657 340.118,39.02 C342.275,37.344 344.079,35.153 345.481,32.508 C346.91,29.824 347.639,26.417 347.639,22.39 C347.639,18.77 347.024,15.618 345.809,13.027 C344.6,10.462 343.05,8.299 341.181,6.589 C339.31,4.886 337.173,3.577 334.836,2.695 C332.651,1.861 330.461,1.246 328.357,0.879 C326.301,0.505 324.33,0.278 322.5,0.198 C320.77,0.131 319.408,0.091 318.387,0.091 L298.785,0.091 C297.296,0.091 296.087,1.3 296.087,2.782 L296.087,77.414 C296.087,78.905 297.296,80.113 298.785,80.113 L305.73,80.113 C307.22,80.113 308.429,78.905 308.429,77.414 L308.429,44.69 L317.164,44.69 L337.36,78.79 C337.841,79.612 338.729,80.113 339.678,80.113 L347.592,80.113 C348.559,80.113 349.462,79.585 349.942,78.738 C350.417,77.896 350.396,76.854 349.895,76.019 M320.497,32.982 L308.429,32.982 L308.429,11.805 L320.497,11.805 C323.789,11.805 326.454,12.205 328.397,12.98 C330.321,13.755 331.797,14.67 332.771,15.705 C333.726,16.727 334.382,17.809 334.716,18.937 C335.102,20.24 335.297,21.408 335.297,22.39 C335.297,23.386 335.102,24.541 334.716,25.85 C334.382,26.978 333.726,28.06 332.771,29.082 C331.776,30.131 330.314,31.039 328.397,31.801 C326.454,32.582 323.796,32.982 320.497,32.982" id="Fill-17" fill="#272F32" mask="url(#mask-6)"></path>
            <path d="M72.101,40.092 C72.101,34.074 71.086,28.458 68.882,22.982 C68.575,22.22 67.934,21.633 67.146,21.399 C66.365,21.165 65.503,21.312 64.822,21.78 L58.992,25.9 C58.023,26.588 57.616,27.83 57.99,28.959 C59.165,32.458 59.76,36.199 59.76,40.092 C59.76,44.379 59.072,48.427 57.716,52.126 C56.373,55.78 54.423,58.992 51.932,61.657 C49.468,64.322 46.422,66.446 42.89,67.975 C35.784,71.04 25.872,71.04 18.78,67.975 C15.781,66.679 13.09,64.896 10.766,62.665 C9.837,61.778 8.395,61.657 7.34,62.411 L1.743,66.365 C1.095,66.826 0.681,67.541 0.614,68.335 C0.548,69.123 0.828,69.899 1.389,70.466 C4.962,74.073 9.263,76.91 14.159,78.901 C19.201,80.958 24.81,82 30.828,82 C36.846,82 42.455,80.958 47.497,78.901 C52.567,76.837 56.968,73.906 60.588,70.172 C64.194,66.459 67.046,61.971 69.076,56.842 C71.086,51.74 72.101,46.103 72.101,40.092" id="Fill-18" fill="#272F32" mask="url(#mask-6)"></path>
        </g>
        <path d="M181.975,205.901 C182.048,205.106 181.761,204.324 181.207,203.763 C177.647,200.19 173.38,197.352 168.518,195.342 C158.386,191.154 145.27,191.154 135.139,195.342 C130.076,197.446 125.682,200.391 122.068,204.124 C118.469,207.837 115.617,212.299 113.593,217.394 C111.577,222.443 110.561,228.067 110.561,234.091 C110.561,240.115 111.577,245.751 113.754,251.201 C114.054,251.969 114.695,252.564 115.483,252.804 C115.744,252.87 116.004,252.91 116.265,252.91 C116.812,252.91 117.36,252.743 117.821,252.423 L123.664,248.282 C124.633,247.595 125.04,246.353 124.666,245.231 C123.491,241.717 122.896,237.964 122.896,234.091 C122.896,229.803 123.591,225.756 124.947,222.063 C126.309,218.396 128.246,215.19 130.724,212.532 C133.195,209.861 136.247,207.737 139.787,206.208 C146.859,203.149 156.797,203.149 163.89,206.208 C166.888,207.51 169.586,209.293 171.884,211.517 C172.819,212.419 174.261,212.532 175.316,211.784 L180.853,207.871 C181.494,207.41 181.908,206.689 181.975,205.901" id="Fill-20" fill="#EA8D5A"></path>
    </g>
</svg>