<?xml version="1.0" encoding="UTF-8"?>
<svg width="101px" height="59px" viewBox="0 0 101 59" version="1.1" xmlns="http://www.w3.org/2000/svg" xmlns:xlink="http://www.w3.org/1999/xlink">
    <!-- Generator: Sketch 53.2 (72643) - https://sketchapp.com -->
    <title>Group</title>
    <desc>Created with Sketch.</desc>
    <defs>
        <polygon id="path-1" points="0.118335449 0.308 22.2791274 0.308 22.2791274 17.3837 0.118335449 17.3837"></polygon>
        <polygon id="path-3" points="0 0.3343 22.1619274 0.3343 22.1619274 17.4103 0 17.4103"></polygon>
        <polygon id="path-5" points="0.432 0.5189 11.997 0.5189 11.997 17.5949 0.432 17.5949"></polygon>
        <polygon id="path-7" points="0.949760999 0.0445863537 16.207 0.0445863537 16.207 13 0.949760999 13"></polygon>
    </defs>
    <g id="Proposed-homepage" stroke="none" stroke-width="1" fill="none" fill-rule="evenodd">
        <g id="Group">
            <path d="M14.2842,16.8093 L14.2842,0.8823 C14.2842,0.5653 14.0262,0.3083 13.7102,0.3083 L12.2272,0.3083 C11.9102,0.3083 11.6522,0.5653 11.6522,0.8823 L11.6522,13.0613 L2.9582,0.5533 C2.8502,0.4003 2.6752,0.3083 2.4862,0.3083 L0.5742,0.3083 C0.2582,0.3083 0.0002,0.5653 0.0002,0.8823 L0.0002,16.8093 C0.0002,17.1263 0.2582,17.3843 0.5742,17.3843 L2.0572,17.3843 C2.3752,17.3843 2.6332,17.1263 2.6332,16.8093 L2.6332,4.6303 L11.3272,17.1383 C11.4342,17.2923 11.6102,17.3843 11.8002,17.3843 L13.7102,17.3843 C14.0262,17.3843 14.2842,17.1263 14.2842,16.8093" id="Fill-1" fill="#283C64"></path>
            <path d="M28.749,16.8093 L28.749,15.4593 C28.749,15.1423 28.491,14.8843 28.174,14.8843 L20.134,14.8843 L20.134,9.8253 L27.298,9.8253 C27.615,9.8253 27.873,9.5683 27.873,9.2503 L27.873,7.9013 C27.873,7.5843 27.615,7.3263 27.298,7.3263 L20.134,7.3263 L20.134,2.8083 L27.814,2.8083 C28.132,2.8083 28.39,2.5503 28.39,2.2333 L28.39,0.8823 C28.39,0.5653 28.132,0.3083 27.814,0.3083 L18.075,0.3083 C17.759,0.3083 17.501,0.5653 17.501,0.8823 L17.501,16.8093 C17.501,17.1263 17.759,17.3843 18.075,17.3843 L28.174,17.3843 C28.491,17.3843 28.749,17.1263 28.749,16.8093" id="Fill-3" fill="#283C64"></path>
            <g id="Group-7" transform="translate(30.000000, 0.000000)">
                <mask id="mask-2" fill="white">
                    <use xlink:href="#path-1"></use>
                </mask>
                <g id="Clip-6"></g>
                <path d="M22.2559,1.0437 C22.3069,0.8697 22.2729,0.6817 22.1639,0.5377 C22.0549,0.3927 21.8839,0.3077 21.7029,0.3077 L20.1739,0.3077 C19.9159,0.3077 19.6899,0.4797 19.6189,0.7277 L16.1879,12.9577 L12.6969,0.7257 C12.6279,0.4787 12.4019,0.3077 12.1449,0.3077 L10.2549,0.3077 C9.9979,0.3077 9.7719,0.4787 9.7019,0.7257 L6.2099,12.9537 L2.7769,0.7277 C2.7069,0.4797 2.4809,0.3077 2.2229,0.3077 L0.6939,0.3077 C0.5129,0.3077 0.3429,0.3927 0.2339,0.5377 C0.1249,0.6817 0.0909,0.8697 0.1409,1.0437 L4.7769,16.9707 C4.8489,17.2147 5.0739,17.3837 5.3289,17.3837 L7.1509,17.3837 C7.4079,17.3837 7.6329,17.2137 7.7039,16.9667 L11.1989,4.6647 L14.6949,16.9667 C14.7669,17.2137 14.9909,17.3837 15.2489,17.3837 L17.0699,17.3837 C17.3259,17.3837 17.5509,17.2147 17.6229,16.9707 L22.2559,1.0437 Z" id="Fill-5" fill="#283C64" mask="url(#mask-2)"></path>
            </g>
            <g id="Group-10" transform="translate(0.000000, 20.000000)">
                <mask id="mask-4" fill="white">
                    <use xlink:href="#path-3"></use>
                </mask>
                <g id="Clip-9"></g>
                <path d="M22.1387,1.0703 C22.1897,0.8963 22.1557,0.7083 22.0467,0.5643 C21.9377,0.4193 21.7667,0.3343 21.5857,0.3343 L20.0557,0.3343 C19.7987,0.3343 19.5727,0.5063 19.5017,0.7543 L16.0707,12.9843 L12.5797,0.7523 C12.5107,0.5043 12.2847,0.3343 12.0277,0.3343 L10.1367,0.3343 C9.8797,0.3343 9.6537,0.5043 9.5827,0.7523 L6.0917,12.9803 L2.6597,0.7543 C2.5887,0.5063 2.3637,0.3343 2.1057,0.3343 L0.5757,0.3343 C0.3947,0.3343 0.2247,0.4193 0.1147,0.5643 C0.0057,0.7083 -0.0273,0.8963 0.0227,1.0703 L4.6587,16.9973 C4.7307,17.2413 4.9547,17.4103 5.2107,17.4103 L7.0337,17.4103 C7.2907,17.4103 7.5157,17.2403 7.5867,16.9933 L11.0817,4.6913 L14.5767,16.9933 C14.6477,17.2403 14.8727,17.4103 15.1307,17.4103 L16.9517,17.4103 C17.2067,17.4103 17.4327,17.2413 17.5047,16.9973 L22.1387,1.0703 Z" id="Fill-8" fill="#283C64" mask="url(#mask-4)"></path>
            </g>
            <path d="M54.4482,36.5374 L50.2402,29.5954 C50.4432,29.5464 50.6512,29.4884 50.8652,29.4224 C51.4092,29.2514 51.9132,28.9894 52.3602,28.6414 C52.8232,28.2824 53.2102,27.8154 53.5062,27.2534 C53.8112,26.6794 53.9672,25.9524 53.9672,25.0934 C53.9672,24.3194 53.8362,23.6464 53.5772,23.0944 C53.3202,22.5484 52.9882,22.0874 52.5882,21.7214 C52.1902,21.3584 51.7352,21.0784 51.2342,20.8894 C50.7662,20.7124 50.3022,20.5814 49.8512,20.5024 C49.4132,20.4234 48.9932,20.3744 48.6022,20.3574 C48.2322,20.3424 47.9412,20.3344 47.7242,20.3344 L43.5412,20.3344 C43.2242,20.3344 42.9672,20.5924 42.9672,20.9094 L42.9672,36.8364 C42.9672,37.1534 43.2242,37.4104 43.5412,37.4104 L45.0232,37.4104 C45.3412,37.4104 45.5982,37.1534 45.5982,36.8364 L45.5982,29.8524 L47.4632,29.8524 L51.7742,37.1284 C51.8772,37.3034 52.0652,37.4104 52.2682,37.4104 L53.9562,37.4104 C54.1632,37.4104 54.3542,37.2984 54.4572,37.1184 C54.5582,36.9374 54.5552,36.7154 54.4482,36.5374 M48.1742,27.3534 L45.5982,27.3534 L45.5982,22.8344 L48.1742,22.8344 C48.8792,22.8344 49.4462,22.9194 49.8602,23.0854 C50.2692,23.2494 50.5832,23.4454 50.7932,23.6684 C51.0012,23.8854 51.1352,24.1104 51.2092,24.3544 C51.2922,24.6384 51.3342,24.8874 51.3342,25.0934 C51.3342,25.3024 51.2922,25.5504 51.2102,25.8304 C51.1352,26.0764 51.0012,26.3024 50.7932,26.5204 C50.5812,26.7444 50.2672,26.9404 49.8602,27.1014 C49.4462,27.2684 48.8802,27.3534 48.1742,27.3534" id="Fill-11" fill="#283C64"></path>
            <path d="M72.1406,28.8726 C72.1406,28.6676 72.1196,28.3156 72.0716,27.8176 C72.0246,27.3136 71.9066,26.7436 71.7236,26.1236 C71.5416,25.5016 71.2506,24.8426 70.8606,24.1636 C70.4606,23.4716 69.9106,22.8316 69.2226,22.2656 C68.5376,21.7006 67.6726,21.2326 66.6506,20.8736 C65.6326,20.5156 64.3876,20.3346 62.9516,20.3346 L58.0256,20.3346 C57.7076,20.3346 57.4506,20.5916 57.4506,20.9096 L57.4506,36.8356 C57.4506,37.1536 57.7076,37.4106 58.0256,37.4106 L62.9516,37.4106 C64.3876,37.4106 65.6326,37.2296 66.6516,36.8726 C67.6716,36.5126 68.5366,36.0446 69.2226,35.4796 C69.9116,34.9106 70.4626,34.2716 70.8616,33.5806 C71.2506,32.9036 71.5416,32.2446 71.7236,31.6236 C71.9106,30.9916 72.0236,30.4366 72.0716,29.9276 C72.1196,29.4296 72.1406,29.0786 72.1406,28.8726 M68.9746,31.5876 C68.6246,32.3346 68.1426,32.9576 67.5406,33.4406 C66.9286,33.9286 66.1946,34.2996 65.3566,34.5396 C64.4976,34.7856 63.5606,34.9106 62.5696,34.9106 L60.0846,34.9106 L60.0846,22.8346 L62.5696,22.8346 C63.5576,22.8346 64.4946,22.9596 65.3566,23.2056 C66.1946,23.4456 66.9286,23.8166 67.5406,24.3066 C68.1436,24.7876 68.6266,25.4116 68.9746,26.1586 C69.3276,26.9096 69.5056,27.8226 69.5056,28.8726 C69.5056,29.9226 69.3276,30.8356 68.9746,31.5876" id="Fill-13" fill="#283C64"></path>
            <path d="M38.8467,35.2756 C38.8327,35.1066 38.7437,34.9536 38.6067,34.8556 L37.4117,34.0116 C37.1867,33.8516 36.8807,33.8766 36.6817,34.0666 C36.1867,34.5426 35.6127,34.9236 34.9707,35.1996 C33.4577,35.8536 31.3437,35.8536 29.8267,35.1996 C29.0717,34.8736 28.4217,34.4196 27.8947,33.8516 C27.3637,33.2796 26.9497,32.5956 26.6627,31.8166 C26.3727,31.0286 26.2247,30.1646 26.2247,29.2496 C26.2247,28.4226 26.3517,27.6226 26.6027,26.8726 C26.6837,26.6326 26.5957,26.3676 26.3897,26.2206 L25.1457,25.3416 C24.9997,25.2406 24.7977,25.2506 24.6297,25.3026 C24.4607,25.3536 24.3057,25.5216 24.2407,25.6856 C23.8097,26.7636 23.5927,27.9636 23.5927,29.2496 C23.5927,30.5346 23.8097,31.7376 24.2397,32.8236 C24.6717,33.9166 25.2807,34.8746 26.0487,35.6676 C26.8197,36.4636 27.7597,37.0896 28.8417,37.5306 C29.9177,37.9696 31.1157,38.1926 32.3997,38.1926 C33.6837,38.1926 34.8807,37.9696 35.9567,37.5306 C37.0037,37.1056 37.9217,36.4986 38.6837,35.7306 C38.8027,35.6106 38.8627,35.4436 38.8467,35.2756" id="Fill-15" fill="#283C64"></path>
            <path d="M41.207,29.2493 C41.207,27.9643 40.989,26.7653 40.559,25.6853 C40.126,24.5963 39.518,23.6453 38.75,22.8543 C37.979,22.0583 37.041,21.4283 35.961,20.9793 C33.799,20.0863 31,20.0863 28.838,20.9793 C27.803,21.4093 26.892,22.0133 26.132,22.7773 C26.012,22.8973 25.951,23.0643 25.965,23.2323 C25.979,23.4013 26.068,23.5553 26.206,23.6533 L27.388,24.4883 C27.613,24.6473 27.919,24.6243 28.118,24.4323 C28.613,23.9563 29.187,23.5753 29.826,23.2983 C31.343,22.6453 33.463,22.6473 34.971,23.2983 C35.725,23.6243 36.376,24.0793 36.904,24.6473 C37.431,25.2133 37.846,25.8973 38.137,26.6803 C38.427,27.4713 38.574,28.3353 38.574,29.2493 C38.574,30.0793 38.446,30.8783 38.196,31.6243 C38.115,31.8663 38.202,32.1303 38.409,32.2773 L39.658,33.1603 C39.738,33.2163 39.837,33.2393 39.936,33.2393 C40.015,33.2393 40.097,33.2243 40.171,33.2023 C40.341,33.1523 40.494,32.9883 40.56,32.8233 C40.989,31.7353 41.207,30.5333 41.207,29.2493" id="Fill-17" fill="#283C64"></path>
            <path d="M55.3184,57.7219 L51.1104,50.7799 C51.3134,50.7309 51.5214,50.6729 51.7354,50.6069 C52.2794,50.4359 52.7834,50.1739 53.2304,49.8259 C53.6924,49.4699 54.0774,49.0019 54.3764,48.4379 C54.6814,47.8639 54.8364,47.1369 54.8364,46.2779 C54.8364,45.5029 54.7064,44.8309 54.4454,44.2779 C54.1874,43.7309 53.8554,43.2689 53.4584,42.9059 C53.0574,42.5419 52.6024,42.2619 52.1044,42.0739 C51.6374,41.8969 51.1714,41.7659 50.7214,41.6869 C50.2834,41.6079 49.8634,41.5589 49.4724,41.5419 C49.1024,41.5269 48.8114,41.5189 48.5934,41.5189 L44.4114,41.5189 C44.0944,41.5189 43.8374,41.7769 43.8374,42.0939 L43.8374,58.0209 C43.8374,58.3379 44.0944,58.5949 44.4114,58.5949 L45.8934,58.5949 C46.2114,58.5949 46.4684,58.3379 46.4684,58.0209 L46.4684,51.0369 L48.3334,51.0369 L52.6444,58.3129 C52.7474,58.4879 52.9354,58.5949 53.1384,58.5949 L54.8264,58.5949 C55.0334,58.5949 55.2244,58.4829 55.3274,58.3029 C55.4284,58.1219 55.4244,57.8999 55.3184,57.7219 M49.0444,48.5379 L46.4684,48.5379 L46.4684,44.0189 L49.0444,44.0189 C49.7474,44.0189 50.3154,44.1039 50.7304,44.2699 C51.1394,44.4339 51.4534,44.6299 51.6634,44.8529 C51.8714,45.0699 52.0054,45.2949 52.0784,45.5389 C52.1624,45.8229 52.2044,46.0719 52.2044,46.2779 C52.2044,46.4869 52.1624,46.7349 52.0804,47.0149 C52.0054,47.2609 51.8714,47.4869 51.6634,47.7049 C51.4514,47.9289 51.1374,48.1249 50.7304,48.2859 C50.3154,48.4529 49.7494,48.5379 49.0444,48.5379" id="Fill-19" fill="#283C64"></path>
            <path d="M73.0117,50.0571 C73.0117,49.8521 72.9907,49.5011 72.9437,49.0021 C72.8967,48.4981 72.7797,47.9281 72.5957,47.3071 C72.4117,46.6811 72.1207,46.0221 71.7337,45.3481 C71.3327,44.6561 70.7817,44.0161 70.0937,43.4511 C69.4097,42.8871 68.5457,42.4181 67.5227,42.0571 C66.5057,41.7001 65.2597,41.5191 63.8227,41.5191 L58.8967,41.5191 C58.5787,41.5191 58.3217,41.7761 58.3217,42.0941 L58.3217,58.0201 C58.3217,58.3381 58.5787,58.5951 58.8967,58.5951 L63.8227,58.5951 C65.2597,58.5951 66.5057,58.4141 67.5237,58.0571 C68.5447,57.6971 69.4087,57.2281 70.0937,56.6651 C70.7837,56.0961 71.3347,55.4571 71.7347,54.7651 C72.1207,54.0921 72.4097,53.4341 72.5957,52.8081 C72.7827,52.1761 72.8957,51.6211 72.9437,51.1111 C72.9907,50.6131 73.0117,50.2631 73.0117,50.0571 L73.0117,50.0571 Z M60.9567,44.0191 L63.4407,44.0191 C64.4297,44.0191 65.3667,44.1441 66.2277,44.3901 C67.0667,44.6301 67.8007,45.0011 68.4127,45.4911 C69.0157,45.9721 69.4987,46.5961 69.8477,47.3431 C70.1987,48.0941 70.3777,49.0071 70.3777,50.0571 C70.3777,51.1061 70.1987,52.0191 69.8477,52.7721 C69.4977,53.5191 69.0147,54.1421 68.4127,54.6251 C67.8007,55.1141 67.0657,55.4841 66.2277,55.7241 C65.3707,55.9701 64.4337,56.0951 63.4407,56.0951 L60.9567,56.0951 L60.9567,44.0191 Z" id="Fill-21" fill="#283C64"></path>
            <path d="M86.8896,58.0205 L86.8896,56.6705 C86.8896,56.3535 86.6316,56.0955 86.3146,56.0955 L78.2746,56.0955 L78.2746,51.0365 L85.4396,51.0365 C85.7566,51.0365 86.0146,50.7785 86.0146,50.4615 L86.0146,49.1125 C86.0146,48.7955 85.7566,48.5375 85.4396,48.5375 L78.2746,48.5375 L78.2746,44.0195 L85.9556,44.0195 C86.2736,44.0195 86.5306,43.7615 86.5306,43.4445 L86.5306,42.0935 C86.5306,41.7765 86.2736,41.5195 85.9556,41.5195 L76.2166,41.5195 C75.8996,41.5195 75.6416,41.7765 75.6416,42.0935 L75.6416,58.0205 C75.6416,58.3375 75.8996,58.5955 76.2166,58.5955 L86.3146,58.5955 C86.6316,58.5955 86.8896,58.3375 86.8896,58.0205" id="Fill-23" fill="#283C64"></path>
            <g id="Group-27" transform="translate(89.000000, 41.000000)">
                <mask id="mask-6" fill="white">
                    <use xlink:href="#path-5"></use>
                </mask>
                <g id="Clip-26"></g>
                <path d="M11.915,16.7219 L7.707,9.7799 C7.911,9.7299 8.12,9.6729 8.331,9.6069 C8.873,9.4369 9.376,9.1749 9.827,8.8259 C10.289,8.4699 10.674,8.0019 10.973,7.4379 C11.278,6.8639 11.433,6.1369 11.433,5.2779 C11.433,4.5049 11.301,3.8329 11.042,3.2789 C10.784,2.7319 10.453,2.2709 10.055,1.9059 C9.656,1.5429 9.2,1.2629 8.701,1.0739 C8.234,0.8969 7.768,0.7659 7.317,0.6869 C6.879,0.6079 6.46,0.5589 6.068,0.5419 C5.699,0.5269 5.408,0.5189 5.19,0.5189 L1.007,0.5189 C0.689,0.5189 0.432,0.7769 0.432,1.0939 L0.432,17.0209 C0.432,17.3379 0.689,17.5949 1.007,17.5949 L2.49,17.5949 C2.808,17.5949 3.064,17.3379 3.064,17.0209 L3.064,10.0369 L4.93,10.0369 L9.239,17.3129 C9.342,17.4879 9.531,17.5949 9.733,17.5949 L11.423,17.5949 C11.63,17.5949 11.821,17.4829 11.924,17.3029 C12.025,17.1219 12.021,16.8999 11.915,16.7219 M5.641,7.5379 L3.064,7.5379 L3.064,3.0189 L5.641,3.0189 C6.344,3.0189 6.912,3.1039 7.327,3.2699 C7.737,3.4339 8.051,3.6299 8.26,3.8519 C8.464,4.0689 8.603,4.2989 8.675,4.5409 C8.758,4.8199 8.8,5.0679 8.8,5.2779 C8.8,5.4899 8.758,5.7369 8.675,6.0159 C8.603,6.2569 8.464,6.4879 8.26,6.7049 C8.048,6.9289 7.735,7.1239 7.327,7.2859 C6.912,7.4529 6.345,7.5379 5.641,7.5379" id="Fill-25" fill="#283C64" mask="url(#mask-6)"></path>
            </g>
            <g id="Group-30" transform="translate(25.000000, 46.000000)">
                <mask id="mask-8" fill="white">
                    <use xlink:href="#path-7"></use>
                </mask>
                <g id="Clip-29"></g>
                <path d="M16.207,4.0571 C16.207,2.7731 15.99,1.5741 15.52,0.4061 C15.455,0.2431 15.318,0.1181 15.149,0.0681 C14.982,0.0181 14.799,0.0491 14.653,0.1491 L13.409,1.0291 C13.202,1.1751 13.115,1.4401 13.196,1.6821 C13.447,2.4281 13.574,3.2271 13.574,4.0571 C13.574,4.9711 13.427,5.8351 13.137,6.6251 C12.85,7.4051 12.435,8.0891 11.903,8.6601 C11.377,9.2271 10.728,9.6811 9.973,10.0061 C8.457,10.6621 6.342,10.6621 4.828,10.0061 C4.189,9.7311 3.613,9.3501 3.119,8.8741 C2.919,8.6841 2.612,8.6601 2.388,8.8191 L1.192,9.6641 C1.055,9.7621 0.966,9.9141 0.952,10.0831 C0.937,10.2531 0.998,10.4181 1.116,10.5381 C1.879,11.3081 2.797,11.9141 3.842,12.3391 C4.918,12.7771 6.115,13.0001 7.399,13.0001 C8.684,13.0001 9.881,12.7771 10.957,12.3391 C12.038,11.8991 12.978,11.2731 13.75,10.4761 C14.52,9.6831 15.128,8.7261 15.561,7.6311 C15.99,6.5421 16.207,5.3401 16.207,4.0571" id="Fill-28" fill="#283C64" mask="url(#mask-8)"></path>
            </g>
            <path d="M38.833,44.0413 C38.848,43.8723 38.787,43.7053 38.668,43.5853 C37.909,42.8223 36.999,42.2173 35.961,41.7873 C33.799,40.8943 31,40.8943 28.838,41.7873 C27.757,42.2363 26.819,42.8653 26.049,43.6623 C25.28,44.4543 24.672,45.4063 24.24,46.4933 C23.81,47.5713 23.593,48.7713 23.593,50.0573 C23.593,51.3423 23.81,52.5453 24.274,53.7083 C24.338,53.8723 24.475,53.9983 24.644,54.0503 C24.698,54.0653 24.755,54.0733 24.81,54.0733 C24.927,54.0733 25.044,54.0373 25.142,53.9683 L26.39,53.0853 C26.596,52.9383 26.684,52.6743 26.603,52.4333 C26.353,51.6843 26.225,50.8843 26.225,50.0573 C26.225,49.1423 26.373,48.2773 26.663,47.4893 C26.953,46.7083 27.366,46.0233 27.895,45.4553 C28.423,44.8863 29.073,44.4333 29.829,44.1063 C31.338,43.4533 33.46,43.4533 34.973,44.1063 C35.613,44.3843 36.188,44.7653 36.679,45.2403 C36.878,45.4323 37.187,45.4553 37.411,45.2963 L38.593,44.4613 C38.73,44.3633 38.818,44.2093 38.833,44.0413" id="Fill-31" fill="#283C64"></path>
        </g>
    </g>
</svg>